{"title":"Toutes.Nos.Envies.[All.Our.Desires].2011.DVDRip.AC3.HORiZON-ArtS","uid":8337150,"size":1465459658,"categoryP":"video","categoryS":"movies","magnet":"?xt=urn:btih:827e0dcac316bde7df068aba9c63e3c16d5ffcab&amp;dn=Toutes.Nos.Envies.%5BAll.Our.Desires%5D.2011.DVDRip.AC3.HORiZON-ArtS&amp;tr=udp%3A%2F%2Ftracker.openbittorrent.com%3A80&amp;tr=udp%3A%2F%2Fopen.demonii.com%3A1337&amp;tr=udp%3A%2F%2Ftracker.coppersurfer.tk%3A6969&amp;tr=udp%3A%2F%2Fexodus.desync.com%3A6969","seeders":4,"leechers":0,"uploader":"artsubs","files":-1,"time":1365011181,"description":"Title: Toutes Nos Envies aka All Our Desires\n\nPlot: Moved by the plight of the mother of her daughter's school friend, a young judge facing an incurable disease teams up with an older colleague in order to fight against financial companies that exploit the poor. (IMDB)\n\nAudio: French\n\nSubtitle: BRAZILIAN PORTUGUESE\n\nIMDB: http://www.imdb.com/title/tt1942120/\n\n\nGeneral\nComplete name                    : Toutes.Nos.Envies.[All.Our.Desires].2011.DVDRip.XviD.AC3.HORiZON-ArtSubs\nFormat                           : AVI\nFormat/Info                      : Audio Video Interleave\nFile size                        : 1.36 GiB\nDuration                         : 2h 0mn\nOverall bit rate                 : 1 618 Kbps\nWriting application              : FairUse Wizard - http://fairusewizard.com\nWriting library                  : The best and REALLY easy backup tool\n\nVideo\nID                               : 0\nFormat                           : MPEG-4 Visual\nFormat profile                   : Advanced Simple@L5\nFormat settings, BVOP            : Yes\nFormat settings, QPel            : No\nFormat settings, GMC             : No warppoints\nFormat settings, Matrix          : Default (H.263)\nMuxing mode                      : Packed bitstream\nCodec ID                         : XVID\nCodec ID/Hint                    : XviD\nDuration                         : 2h 0mn\nBit rate                         : 1 225 Kbps\nWidth                            : 688 pixels\nHeight                           : 288 pixels\nDisplay aspect ratio             : 2.35:1\nFrame rate                       : 23.976 fps\nColor space                      : YUV\nChroma subsampling               : 4:2:0\nBit depth                        : 8 bits\nScan type                        : Progressive\nCompression mode                 : Lossy\nBits/(Pixel*Frame)               : 0.258\nStream size                      : 1.03 GiB (76%)\nWriting library                  : XviD 1.1.0 (UTC 2005-11-22)\n\nAudio\nID                               : 1\nFormat                           : AC-3\nFormat/Info                      : Audio Coding 3\nMode extension                   : CM (complete main)\nCodec ID                         : 2000\nDuration                         : 2h 0mn\nBit rate mode                    : Constant\nBit rate                         : 384 Kbps\nChannel(s)                       : 6 channels\nChannel positions                : Front: L C R, Side: L R, LFE\nSampling rate                    : 48.0 KHz\nBit depth                        : 16 bits\nCompression mode                 : Lossy\nStream size                      : 332 MiB (24%)\nAlignment                        : Split accross interleaves\nInterleave, duration             : 42 ms (1.00 video frame)\nInterleave, preload duration     : 500 ms\n","torrent":{"xt":"urn:btih:827e0dcac316bde7df068aba9c63e3c16d5ffcab","amp;dn":"Toutes.Nos.Envies.%5BAll.Our.Desires%5D.2011.DVDRip.AC3.HORiZON-ArtS","amp;tr":["udp%3A%2F%2Ftracker.openbittorrent.com%3A80","udp%3A%2F%2Fopen.demonii.com%3A1337","udp%3A%2F%2Ftracker.coppersurfer.tk%3A6969","udp%3A%2F%2Fexodus.desync.com%3A6969"],"infoHash":"827e0dcac316bde7df068aba9c63e3c16d5ffcab","infoHashBuffer":{"type":"Buffer","data":[130,126,13,202,195,22,189,231,223,6,138,186,156,99,227,193,109,95,252,171]},"announce":[],"urlList":[]}}